# xmcd
#
# Track frame offsets:
#	150
#	21854
#	39034
#	56830
#	75598
#	100318
#	119841
#
# Disc length: 1917 seconds
#
# Revision: 1
# Processed by: cddbd v1.5.2PL0 Copyright (c) Steve Scherf et al.
# Submitted via: audiograbber 1.83.01
#
DISCID=54077b07
DTITLE=Kelley Mickwee - You Used To Live Here
DYEAR=2014
DGENRE=Americana
TTITLE0=River Girl
TTITLE1=Take Me Home
TTITLE2=Beautiful Accidents
TTITLE3=You Used To Live Here
TTITLE4=Blameless
TTITLE5=Hotel Jackson
TTITLE6=Dark Side Of Town
EXTD=
EXTT0=
EXTT1=
EXTT2=
EXTT3=
EXTT4=
EXTT5=
EXTT6=
PLAYORDER=
